
<svg width="40" height="40" viewBox="0 0 40 40" fill="none" xmlns="http://www.w3.org/2000/svg">
<rect x="0.5" y="0.5" width="39" height="39" rx="19.5" fill="white"/>
<rect x="0.5" y="0.5" width="39" height="39" rx="19.5" stroke="#36394A"/>
<g clip-path="url(#clip0_10089_4198)">
<path opacity="0.2" d="M20.0001 11C18.1794 10.9999 16.4015 11.552 14.9011 12.5834C13.4007 13.6148 12.2485 15.077 11.5964 16.7769C10.9444 18.4769 10.8233 20.3346 11.2491 22.1048C11.6749 23.875 12.6276 25.4744 13.9813 26.6919C14.5459 25.5809 15.4071 24.6478 16.4695 23.9962C17.5318 23.3446 18.7538 22.9998 20.0001 23C19.2584 23 18.5334 22.7801 17.9167 22.368C17.3 21.956 16.8193 21.3703 16.5355 20.6851C16.2517 19.9998 16.1774 19.2458 16.3221 18.5184C16.4668 17.791 16.824 17.1228 17.3484 16.5983C17.8729 16.0739 18.541 15.7167 19.2685 15.5721C19.9959 15.4274 20.7499 15.5016 21.4351 15.7855C22.1203 16.0693 22.706 16.5499 23.1181 17.1666C23.5301 17.7833 23.7501 18.5083 23.7501 19.25C23.7501 20.2446 23.355 21.1984 22.6517 21.9017C21.9484 22.6049 20.9946 23 20.0001 23C21.2462 22.9997 22.4682 23.3443 23.5305 23.9958C24.5928 24.6473 25.4541 25.5801 26.0188 26.6909C27.3722 25.4734 28.3246 23.874 28.7502 22.104C29.1758 20.334 29.0546 18.4765 28.4026 16.7768C27.7506 15.077 26.5985 13.615 25.0983 12.5836C23.5982 11.5523 21.8205 11.0001 20.0001 11Z" fill="#36394A"/>
<path d="M20 23C22.0711 23 23.75 21.3211 23.75 19.25C23.75 17.1789 22.0711 15.5 20 15.5C17.9289 15.5 16.25 17.1789 16.25 19.25C16.25 21.3211 17.9289 23 20 23Z" stroke="#36394A" stroke-width="1.5" stroke-linecap="round" stroke-linejoin="round"/>
<path d="M13.9814 26.6914C14.5457 25.5799 15.4068 24.6464 16.4691 23.9943C17.5315 23.3422 18.7537 22.9971 20.0002 22.9971C21.2467 22.9971 22.4689 23.3422 23.5312 23.9943C24.5936 24.6464 25.4547 25.5799 26.0189 26.6914" stroke="#36394A" stroke-width="1.5" stroke-linecap="round" stroke-linejoin="round"/>
<path d="M28.8754 18.5C29.1918 20.38 28.9026 22.312 28.0494 24.0169C27.1962 25.7217 25.8233 27.1114 24.1288 27.9851C22.4343 28.8588 20.5061 29.1714 18.6224 28.8777C16.7387 28.584 14.9971 27.6992 13.649 26.3512C12.3009 25.0031 11.4162 23.2615 11.1225 21.3778C10.8288 19.4941 11.1414 17.5658 12.0151 15.8713C12.8888 14.1769 14.2784 12.8039 15.9833 11.9508C17.6882 11.0976 19.6201 10.8083 21.5001 11.1247" stroke="#36394A" stroke-width="1.5" stroke-linecap="round" stroke-linejoin="round"/>
<path d="M25.25 13.25L26.75 14.75L29.75 11.75" stroke="#36394A" stroke-width="1.5" stroke-linecap="round" stroke-linejoin="round"/>
</g>
<defs>
<clipPath id="clip0_10089_4198">
<rect width="24" height="24" fill="white" transform="translate(8 8)"/>
</clipPath>
</defs>
</svg>
