
<svg width="102" height="100" viewBox="0 0 102 100" fill="none" xmlns="http://www.w3.org/2000/svg">
<g clip-path="url(#clip0_10088_2778)">
<path opacity="0.2" d="M50.375 87.5C71.0857 87.5 87.875 70.7107 87.875 50C87.875 29.2893 71.0857 12.5 50.375 12.5C29.6643 12.5 12.875 29.2893 12.875 50C12.875 70.7107 29.6643 87.5 50.375 87.5Z" fill="#36394A"/>
<path d="M87.5446 45C87.7625 46.6357 87.875 48.3047 87.875 50C87.875 70.7107 71.0857 87.5 50.375 87.5C29.6643 87.5 12.875 70.7107 12.875 50C12.875 29.2893 29.6643 12.5 50.375 12.5C56.2424 12.5 61.7951 13.8475 66.7405 16.25" stroke="#36394A" stroke-width="2.5" stroke-miterlimit="10" stroke-linecap="round"/>
<path d="M41 37.5V62.5" stroke="#36394A" stroke-width="2.5" stroke-linecap="round" stroke-linejoin="round"/>
<path d="M59.75 37.5V62.5" stroke="#36394A" stroke-width="2.5" stroke-linecap="round" stroke-linejoin="round"/>
</g>
<g clip-path="url(#clip1_10088_2778)">
<path opacity="0.2" d="M74.792 33.0829L66.1842 29.911C65.9469 29.8234 65.7421 29.6652 65.5974 29.4576C65.4528 29.25 65.3752 29.0031 65.3752 28.7501C65.3752 28.4971 65.4528 28.2502 65.5974 28.0426C65.7421 27.835 65.9469 27.6768 66.1842 27.5892L74.792 24.4173L77.9639 15.8095C78.0515 15.5721 78.2098 15.3673 78.4173 15.2227C78.6249 15.078 78.8718 15.0005 79.1248 15.0005C79.3778 15.0005 79.6248 15.078 79.8323 15.2227C80.0399 15.3673 80.1982 15.5721 80.2858 15.8095L83.4577 24.4173L92.0655 27.5892C92.3028 27.6768 92.5076 27.835 92.6523 28.0426C92.7969 28.2502 92.8745 28.4971 92.8745 28.7501C92.8745 29.0031 92.7969 29.25 92.6523 29.4576C92.5076 29.6652 92.3028 29.8234 92.0655 29.911L83.4577 33.0829L80.2858 41.6907C80.1982 41.9281 80.0399 42.1329 79.8323 42.2775C79.6248 42.4221 79.3778 42.4997 79.1248 42.4997C78.8718 42.4997 78.6249 42.4221 78.4173 42.2775C78.2098 42.1329 78.0515 41.9281 77.9639 41.6907L74.792 33.0829Z" fill="#36394A"/>
<path d="M74.792 33.0829L66.1842 29.911C65.9469 29.8234 65.7421 29.6652 65.5974 29.4576C65.4528 29.25 65.3752 29.0031 65.3752 28.7501C65.3752 28.4971 65.4528 28.2502 65.5974 28.0426C65.7421 27.835 65.9469 27.6768 66.1842 27.5892L74.792 24.4173L77.9639 15.8095C78.0515 15.5721 78.2098 15.3673 78.4173 15.2227C78.6249 15.078 78.8718 15.0005 79.1248 15.0005C79.3778 15.0005 79.6248 15.078 79.8323 15.2227C80.0399 15.3673 80.1982 15.5721 80.2858 15.8095L83.4577 24.4173L92.0655 27.5892C92.3028 27.6768 92.5076 27.835 92.6523 28.0426C92.7969 28.2502 92.8745 28.4971 92.8745 28.7501C92.8745 29.0031 92.7969 29.25 92.6523 29.4576C92.5076 29.6652 92.3028 29.8234 92.0655 29.911L83.4577 33.0829L80.2858 41.6907C80.1982 41.9281 80.0399 42.1329 79.8323 42.2775C79.6248 42.4222 79.3778 42.4997 79.1248 42.4997C78.8718 42.4997 78.6249 42.4222 78.4173 42.2775C78.2098 42.1329 78.0515 41.9281 77.9639 41.6907L74.792 33.0829Z" stroke="#36394A" stroke-width="2.5" stroke-linecap="round" stroke-linejoin="round"/>
<path d="M89.125 8.75V16.25" stroke="#36394A" stroke-width="2.5" stroke-linecap="round" stroke-linejoin="round"/>
<path d="M96.625 17.5V22.5" stroke="#36394A" stroke-width="2.5" stroke-linecap="round" stroke-linejoin="round"/>
<path d="M85.375 12.5H92.875" stroke="#36394A" stroke-width="2.5" stroke-linecap="round" stroke-linejoin="round"/>
<path d="M94.125 20H99.125" stroke="#36394A" stroke-width="2.5" stroke-linecap="round" stroke-linejoin="round"/>
</g>
<defs>
<clipPath id="clip0_10088_2778">
<rect width="100" height="100" fill="white" transform="translate(0.375)"/>
</clipPath>
<clipPath id="clip1_10088_2778">
<rect width="40" height="40" fill="white" transform="translate(61.625 6.25)"/>
</clipPath>
</defs>
</svg>
