
<svg width="16" height="17" viewBox="0 0 16 17" fill="none" xmlns="http://www.w3.org/2000/svg">
<g clip-path="url(#clip0_10067_4021)">
<path opacity="0.2" d="M4.99564 13.6945C6.25597 14.4239 7.73856 14.6701 9.167 14.3871C10.5954 14.1041 11.8722 13.3114 12.7593 12.1566C13.6464 11.0017 14.0832 9.56374 13.9884 8.11063C13.8935 6.65753 13.2734 5.28852 12.2438 4.25883C11.2141 3.22915 9.84506 2.60907 8.39196 2.51422C6.93886 2.41936 5.50085 2.8562 4.34604 3.74328C3.19123 4.63037 2.39844 5.90715 2.11548 7.33559C1.83252 8.76403 2.07871 10.2466 2.80814 11.507L2.02626 13.8413C1.99688 13.9294 1.99262 14.024 2.01395 14.1144C2.03528 14.2047 2.08136 14.2874 2.14703 14.3531C2.21269 14.4187 2.29535 14.4648 2.38574 14.4861C2.47612 14.5075 2.57066 14.5032 2.65876 14.4738L4.99564 13.6945Z" fill="#36394A"/>
<path d="M4.99564 13.6945C6.25597 14.4239 7.73856 14.6701 9.167 14.3871C10.5954 14.1041 11.8722 13.3114 12.7593 12.1566C13.6464 11.0017 14.0832 9.56373 13.9884 8.11063C13.8935 6.65753 13.2734 5.28852 12.2438 4.25883C11.2141 3.22915 9.84506 2.60907 8.39196 2.51422C6.93886 2.41936 5.50085 2.8562 4.34604 3.74328C3.19123 4.63037 2.39844 5.90715 2.11548 7.33559C1.83252 8.76403 2.07871 10.2466 2.80814 11.507L2.02626 13.8413C1.99688 13.9294 1.99262 14.024 2.01395 14.1144C2.03528 14.2047 2.08136 14.2874 2.14703 14.3531C2.21269 14.4187 2.29535 14.4648 2.38574 14.4861C2.47612 14.5075 2.57066 14.5032 2.65876 14.4738L4.99564 13.6945Z" stroke="#36394A" stroke-linecap="round" stroke-linejoin="round"/>
<path d="M8 9.25C8.41421 9.25 8.75 8.91421 8.75 8.5C8.75 8.08579 8.41421 7.75 8 7.75C7.58579 7.75 7.25 8.08579 7.25 8.5C7.25 8.91421 7.58579 9.25 8 9.25Z" fill="#36394A"/>
<path d="M5.25 9.25C5.66421 9.25 6 8.91421 6 8.5C6 8.08579 5.66421 7.75 5.25 7.75C4.83579 7.75 4.5 8.08579 4.5 8.5C4.5 8.91421 4.83579 9.25 5.25 9.25Z" fill="#36394A"/>
<path d="M10.75 9.25C11.1642 9.25 11.5 8.91421 11.5 8.5C11.5 8.08579 11.1642 7.75 10.75 7.75C10.3358 7.75 10 8.08579 10 8.5C10 8.91421 10.3358 9.25 10.75 9.25Z" fill="#36394A"/>
</g>
<defs>
<clipPath id="clip0_10067_4021">
<rect width="16" height="16" fill="white" transform="translate(0 0.5)"/>
</clipPath>
</defs>
</svg>
