
<svg width="100" height="100" viewBox="0 0 100 100" fill="none" xmlns="http://www.w3.org/2000/svg">
<g clip-path="url(#clip0_10089_3773)">
<path opacity="0.2" d="M68.75 21.875H25C24.1712 21.875 23.3763 22.2042 22.7903 22.7903C22.2042 23.3763 21.875 24.1712 21.875 25V78.125H53.2891C52.9228 76.31 53.2131 74.424 54.1081 72.8031C55.0031 71.1822 56.4447 69.9319 58.1758 69.2751C59.907 68.6183 61.8152 68.5977 63.5601 69.217C65.305 69.8362 66.7733 71.0551 67.7031 72.6562L71.875 79.0273V25C71.875 24.1712 71.5458 23.3763 70.9597 22.7903C70.3737 22.2042 69.5788 21.875 68.75 21.875Z" fill="#36394A"/>
<path d="M46.875 53.125V6.25" stroke="#36394A" stroke-width="2.5" stroke-linecap="round" stroke-linejoin="round"/>
<path d="M71.875 50C76.6409 52.8592 80.5851 56.9039 83.3233 61.7403C86.0615 66.5767 87.5005 72.0399 87.5 77.5977V93.75" stroke="#36394A" stroke-width="2.5" stroke-linecap="round" stroke-linejoin="round"/>
<path d="M31.25 21.875H25C24.1712 21.875 23.3763 22.2042 22.7903 22.7903C22.2042 23.3763 21.875 24.1712 21.875 25V78.125" stroke="#36394A" stroke-width="2.5" stroke-linecap="round" stroke-linejoin="round"/>
<path d="M62.8672 93.75L54.1719 80.4688C53.1522 78.6753 52.8833 76.5514 53.4238 74.5604C53.9644 72.5695 55.2704 70.8731 57.0571 69.8416C58.8437 68.8101 60.9658 68.5271 62.9603 69.0544C64.9548 69.5817 66.6597 70.8765 67.7031 72.6562L71.875 79.0273V25C71.875 24.1712 71.5457 23.3763 70.9597 22.7903C70.3736 22.2042 69.5788 21.875 68.75 21.875H62.5" stroke="#36394A" stroke-width="2.5" stroke-linecap="round" stroke-linejoin="round"/>
<path d="M34.375 40.625L46.875 53.125L59.375 40.625" stroke="#36394A" stroke-width="2.5" stroke-linecap="round" stroke-linejoin="round"/>
</g>
<defs>
<clipPath id="clip0_10089_3773">
<rect width="100" height="100" fill="white"/>
</clipPath>
</defs>
</svg>
