
<svg width="40" height="41" viewBox="0 0 40 41" fill="none" xmlns="http://www.w3.org/2000/svg">
<rect x="0.5" y="1" width="39" height="39" rx="19.5" fill="white"/>
<rect x="0.5" y="1" width="39" height="39" rx="19.5" stroke="#C1C7D0"/>
<path d="M18 27.1673H24C24.5533 27.1673 25.0266 26.834 25.2266 26.354L27.24 21.654C27.3 21.5007 27.3333 21.3407 27.3333 21.1673V19.834C27.3333 19.1007 26.7333 18.5007 26 18.5007H21.7933L22.4266 15.454L22.4466 15.2407C22.4466 14.9673 22.3333 14.714 22.1533 14.534L21.4466 13.834L17.0533 18.2273C16.8133 18.4673 16.6666 18.8007 16.6666 19.1673V25.834C16.6666 26.5673 17.2666 27.1673 18 27.1673ZM18 19.1673L20.8933 16.274L20 19.834H26V21.1673L24 25.834H18V19.1673ZM12.6666 19.1673H15.3333V27.1673H12.6666V19.1673Z" fill="black"/>
</svg>
