
<svg width="40" height="41" viewBox="0 0 40 41" fill="none" xmlns="http://www.w3.org/2000/svg">
<rect x="0.5" y="1" width="39" height="39" rx="19.5" fill="white"/>
<rect x="0.5" y="1" width="39" height="39" rx="19.5" stroke="#C1C7D0"/>
<path d="M22 13.834H16C15.4466 13.834 14.9733 14.1673 14.7733 14.6473L12.76 19.3473C12.7 19.5007 12.6666 19.6607 12.6666 19.834V21.1673C12.6666 21.9007 13.2666 22.5007 14 22.5007H18.2066L17.5733 25.5473L17.5533 25.7607C17.5533 26.034 17.6666 26.2873 17.8466 26.4673L18.5533 27.1673L22.9466 22.774C23.1866 22.534 23.3333 22.2007 23.3333 21.834V15.1673C23.3333 14.434 22.7333 13.834 22 13.834ZM22 21.834L19.1066 24.7273L20 21.1673H14V19.834L16 15.1673H22V21.834ZM24.6666 13.834H27.3333V21.834H24.6666V13.834Z" fill="black"/>
</svg>
